<?xml version="1.0" encoding="UTF-8"?>
<svg id="Capa_2" data-name="Capa 2" xmlns="http://www.w3.org/2000/svg" viewBox="0 0 16.53 12">
  <defs>
    <style>
      .cls-1 {
        fill: #162042;
      }
    </style>
  </defs>
  <g id="Capa_1-2" data-name="Capa 1">
    <g>
      <path class="cls-1" d="m.49,4.67V.82h.56v3.3h1.83v.54H.49Z"/>
      <path class="cls-1" d="m3.41.82h2.46v.54h-2.46v-.54Zm0,1.63h2.46v.53h-2.46v-.53Zm0,2.22h2.46v-.54h-2.46v.54Z"/>
      <path class="cls-1" d="m9.58,4.23c-.18.16-.38.29-.61.37-.23.08-.47.12-.71.12-.26,0-.51-.05-.73-.15-.22-.1-.42-.24-.58-.41-.17-.17-.29-.38-.38-.62s-.14-.51-.14-.79.05-.55.14-.79c.09-.24.22-.45.38-.62.16-.17.36-.31.58-.41.23-.1.47-.15.74-.15.28,0,.54.05.76.15s.42.25.58.46l-.35.4c-.14-.15-.29-.27-.45-.34-.16-.07-.33-.11-.52-.11s-.36.03-.53.1-.3.17-.41.29-.2.27-.27.45c-.07.17-.1.36-.1.57s.03.39.1.56c.06.17.15.32.27.45s.25.22.41.29.33.11.52.11c.13,0,.26-.02.39-.05.13-.03.25-.09.36-.17v-1.23h.54v1.52Z"/>
      <path class="cls-1" d="m10.55,4.67h-.58l1.55-3.85h.55l1.55,3.85h-.59l-1.24-3.21-1.24,3.21Z"/>
      <path class="cls-1" d="m14.1,4.67V.82h.56v3.3h1.83v.54h-2.39Z"/>
      <path class="cls-1" d="m3.38,10.6c-.26,0-.5-.05-.73-.15-.22-.1-.41-.24-.58-.41-.16-.17-.29-.38-.38-.62s-.14-.51-.14-.79.05-.55.14-.79.22-.45.38-.62c.16-.17.36-.31.58-.41.22-.1.47-.15.73-.15.27,0,.52.05.75.16s.42.26.58.46l-.36.4c-.25-.3-.56-.46-.94-.46-.19,0-.36.03-.51.1s-.29.17-.41.29c-.12.13-.21.28-.27.45-.06.17-.1.36-.1.57s.03.39.1.57c.06.17.15.32.27.45.12.13.25.22.41.29.16.07.33.1.51.1.38,0,.69-.15.94-.46l.36.4c-.16.21-.35.37-.58.47-.23.1-.48.16-.76.16Z"/>
      <path class="cls-1" d="m6.4,10.6c-.13,0-.26-.01-.39-.04-.13-.02-.25-.06-.37-.1-.12-.04-.22-.09-.32-.15-.1-.06-.18-.12-.25-.19l.2-.49c.13.12.3.23.5.31.2.08.41.12.63.12.28,0,.48-.05.61-.16.13-.1.19-.23.19-.39s-.05-.26-.15-.34c-.1-.08-.23-.14-.38-.19-.15-.05-.32-.1-.49-.14s-.34-.11-.49-.19-.28-.19-.38-.33c-.1-.14-.15-.33-.15-.56,0-.15.03-.3.08-.43.05-.14.14-.25.25-.36.11-.1.25-.18.42-.24.17-.06.37-.09.6-.09.21,0,.41.03.6.09.2.06.37.14.52.25l-.18.5c-.15-.11-.31-.18-.47-.23-.16-.05-.32-.07-.47-.07-.28,0-.48.05-.6.16-.12.11-.19.24-.19.4,0,.15.05.26.15.33s.23.14.38.19c.15.05.32.1.49.14s.34.11.49.18c.15.08.28.19.38.32.1.14.15.32.15.56,0,.15-.03.29-.08.43-.06.14-.14.25-.25.36-.11.1-.25.18-.42.24-.17.06-.37.09-.6.09Z"/>
      <path class="cls-1" d="m11.32,10.11c-.18.16-.38.29-.61.37-.23.08-.47.12-.71.12-.26,0-.51-.05-.73-.15-.22-.1-.42-.24-.58-.41-.17-.17-.29-.38-.38-.62s-.14-.51-.14-.79.05-.55.14-.79c.09-.24.22-.45.38-.62.16-.17.36-.31.58-.41.23-.1.47-.15.74-.15.28,0,.54.05.76.15s.42.25.58.46l-.35.4c-.14-.15-.29-.27-.45-.34-.16-.07-.33-.11-.52-.11s-.36.03-.53.1-.3.17-.41.29-.2.27-.27.45c-.07.17-.1.36-.1.57s.03.39.1.56c.06.17.15.32.27.45s.25.22.41.29.33.11.52.11c.13,0,.26-.02.39-.05.13-.03.25-.09.36-.17v-1.23h.54v1.52Z"/>
      <path class="cls-1" d="m12.75,10.55h-.54v-3.85h.46l1.4,2.62,1.38-2.62h.46v3.85s-.53,0-.53,0v-2.66s-1.19,2.21-1.19,2.21h-.25l-1.18-2.19v2.64Z"/>
    </g>
  </g>
</svg>